<svg xmlns="http://www.w3.org/2000/svg" width="148" height="73">
	<g class="symbol">
		<path class="c" fill="#444444" d="M61.715 50.669H35.627c-8.089 0-14.67-6.582-14.67-14.67 0-8.089 6.581-14.669 14.67-14.669h26.088A50.252 50.252 0 0174.331.373H35.627C15.982.373 0 16.355 0 35.999c0 19.645 15.982 35.627 35.627 35.627h38.704a50.264 50.264 0 01-12.616-20.957"/>
		<path class="o" fill="#444444" d="M145.833 35.999c0 19.883-16.118 36.001-36.001 36.001-19.882 0-36-16.118-36-36.001C73.832 16.117 89.95 0 109.832 0c19.883 0 36.001 16.117 36.001 35.999"/>
	</g>
</svg>
